<svg width="3646" height="3355" viewBox="0 0 3646 3355" fill="none" xmlns="http://www.w3.org/2000/svg">
<g clip-path="url(#clip0_1_8)">
<path fill-rule="evenodd" clip-rule="evenodd" d="M1824.5 2655C2557.66 2655 3152 2060.66 3152 1327.5C3152 594.342 2557.66 0 1824.5 0C1091.34 0 497 594.342 497 1327.5C497 2060.66 1091.34 2655 1824.5 2655ZM2199.5 2181C2671.98 2181 3055 1797.98 3055 1325.5C3055 853.02 2671.98 470 2199.5 470C1727.02 470 1344 853.02 1344 1325.5C1344 1797.98 1727.02 2181 2199.5 2181Z" fill="black"/>
<circle cx="2017.5" cy="1325.5" r="457.5" fill="black"/>
<path d="M90.9859 3127.34C44.4409 3127.34 13.3039 3150.13 13.3039 3185.44C13.3039 3266.01 139.778 3234.55 139.457 3293.61C139.457 3315.12 119.234 3328.28 86.8129 3328.28C61.4539 3328.28 32.8849 3316.73 12.0199 3296.5L0.463867 3319.62C21.6499 3339.84 53.7499 3353.96 86.4919 3353.96C134.642 3353.96 167.705 3329.89 167.705 3292.33C168.026 3210.8 41.5519 3240.97 41.5519 3183.19C41.5519 3164.25 60.4909 3153.34 89.3809 3153.34C107.357 3153.34 131.111 3158.79 151.334 3172.28L162.248 3148.2C143.63 3135.68 116.987 3127.34 90.9859 3127.34Z" fill="black"/>
<path d="M246.134 3353V3128.3H220.454V3353H246.134Z" fill="black"/>
<path d="M339.864 3328.6V3128.3H314.184V3353H438.411V3328.6H339.864Z" fill="black"/>
<path d="M565.72 3353L657.526 3128.3H630.562L552.88 3323.15L475.519 3128.3H447.913L539.077 3353H565.72Z" fill="black"/>
<path d="M845.965 3153.02V3128.3H693.49V3353H850.138V3328.6H719.17V3251.56H832.483V3226.85H719.17V3153.02H845.965Z" fill="black"/>
<path d="M1049.6 3353H1078.81L1026.16 3276.6C1058.59 3266.01 1076.56 3240.97 1076.56 3203.73C1076.56 3155.91 1044.14 3128.3 987.965 3128.3H902.579V3353H928.259V3282.06H987.965C993.101 3282.06 998.237 3281.74 1003.05 3281.42L1049.6 3353ZM928.259 3257.34V3153.02H987.965C1028.73 3153.02 1051.84 3170.35 1051.84 3204.38C1051.84 3239.37 1028.73 3257.34 987.965 3257.34H928.259Z" fill="black"/>
<path d="M1134.55 3128.3V3353H1160.23V3282.06H1218.97C1274.51 3282.06 1306.61 3253.49 1306.61 3203.73C1306.61 3155.91 1274.51 3128.3 1218.97 3128.3H1134.55ZM1160.23 3153.02H1218.01C1258.46 3153.02 1281.89 3170.35 1281.89 3204.38C1281.89 3239.37 1258.46 3257.34 1218.01 3257.34H1160.23V3153.02Z" fill="black"/>
<path d="M1374.96 3328.6V3128.3H1349.28V3353H1473.51V3328.6H1374.96Z" fill="black"/>
<path d="M1659.82 3296.18L1684.86 3353H1712.79L1612.32 3128.3H1585.67L1484.88 3353H1512.16L1537.2 3296.18H1659.82ZM1648.91 3271.47H1548.12L1598.19 3157.51L1648.91 3271.47Z" fill="black"/>
<path d="M1868.9 3153.02V3128.3H1696.53V3153.02H1769.72V3353H1795.4V3153.02H1868.9Z" fill="black"/>
<path d="M2047.9 3153.02V3128.3H1875.52V3153.02H1948.71V3353H1974.39V3153.02H2047.9Z" fill="black"/>
<path d="M2237.49 3153.02V3128.3H2085.01V3353H2241.66V3328.6H2110.69V3251.56H2224.01V3226.85H2110.69V3153.02H2237.49Z" fill="black"/>
<path d="M2441.12 3353H2470.33L2417.69 3276.6C2450.11 3266.01 2468.08 3240.97 2468.08 3203.73C2468.08 3155.91 2435.66 3128.3 2379.49 3128.3H2294.1V3353H2319.78V3282.06H2379.49C2384.62 3282.06 2389.76 3281.74 2394.57 3281.42L2441.12 3353ZM2319.78 3257.34V3153.02H2379.49C2420.25 3153.02 2443.37 3170.35 2443.37 3204.38C2443.37 3239.37 2420.25 3257.34 2379.49 3257.34H2319.78Z" fill="black"/>
<path d="M2756.36 3296.18L2781.4 3353H2809.33L2708.86 3128.3H2682.21L2581.42 3353H2608.7L2633.74 3296.18H2756.36ZM2745.45 3271.47H2644.66L2694.73 3157.51L2745.45 3271.47Z" fill="black"/>
<path d="M3021.91 3128.3H2996.23V3260.55C2996.23 3304.21 2970.55 3329.57 2927.86 3329.57C2885.16 3329.57 2858.84 3304.21 2858.84 3260.55V3128.3H2833.16V3260.55C2833.16 3318.97 2868.79 3354.28 2927.86 3354.28C2986.6 3354.28 3021.91 3318.97 3021.91 3260.55V3128.3Z" fill="black"/>
<path d="M3084.69 3128.3V3353H3174.57C3240.7 3353 3291.09 3304.53 3291.09 3240.65C3291.09 3176.77 3241.02 3128.3 3175.53 3128.3H3084.69ZM3110.37 3153.02H3174.89C3225.29 3153.02 3265.09 3190.57 3265.09 3240.97C3265.09 3291.05 3225.93 3328.6 3175.85 3328.6H3110.37V3153.02Z" fill="black"/>
<path d="M3363.66 3353V3128.3H3337.98V3353H3363.66Z" fill="black"/>
<path d="M3528.33 3127.66C3462.52 3127.66 3410.52 3177.09 3410.52 3240.65C3410.52 3303.89 3462.52 3354.28 3528.33 3354.28C3593.81 3354.28 3645.82 3303.89 3645.82 3240.65C3645.82 3177.41 3593.81 3127.66 3528.33 3127.66ZM3528.33 3152.05C3578.41 3152.05 3619.49 3191.22 3619.49 3240.65C3619.49 3290.08 3578.41 3329.57 3528.33 3329.57C3478.25 3329.57 3436.52 3290.08 3436.52 3240.65C3436.52 3191.22 3478.25 3152.05 3528.33 3152.05Z" fill="black"/>
</g>
<defs>
<clipPath id="clip0_1_8">
<rect width="3645.35" height="3354.28" fill="white" transform="translate(0.463867)"/>
</clipPath>
</defs>
</svg>
