<svg width="4041" height="627" viewBox="0 0 4041 627" fill="none" xmlns="http://www.w3.org/2000/svg">
<g clip-path="url(#clip0_3_19)">
<path fill-rule="evenodd" clip-rule="evenodd" d="M313.5 627C486.641 627 627 486.641 627 313.5C627 140.359 486.641 0 313.5 0C140.359 0 0 140.359 0 313.5C0 486.641 140.359 627 313.5 627ZM402 515C513.562 515 604 424.562 604 313C604 201.438 513.562 111 402 111C290.438 111 200 201.438 200 313C200 424.562 290.438 515 402 515Z" fill="white"/>
<circle cx="359" cy="313" r="108" fill="white"/>
<path d="M850.697 227.536C808.937 227.536 781.001 247.984 781.001 279.664C781.001 351.952 894.473 323.728 894.185 376.72C894.185 396.016 876.041 407.824 846.953 407.824C824.201 407.824 798.569 397.456 779.849 379.312L769.481 400.048C788.489 418.192 817.289 430.864 846.665 430.864C889.865 430.864 919.529 409.264 919.529 375.568C919.817 302.416 806.345 329.488 806.345 277.648C806.345 260.656 823.337 250.864 849.257 250.864C865.385 250.864 886.697 255.76 904.841 267.856L914.633 246.256C897.929 235.024 874.025 227.536 850.697 227.536Z" fill="white"/>
<path d="M989.896 430V228.4H966.856V430H989.896Z" fill="white"/>
<path d="M1073.99 408.112V228.4H1050.95V430H1162.41V408.112H1073.99Z" fill="white"/>
<path d="M1276.63 430L1358.99 228.4H1334.8L1265.11 403.216L1195.7 228.4H1170.93L1252.72 430H1276.63Z" fill="white"/>
<path d="M1528.06 250.576V228.4H1391.26V430H1531.81V408.112H1414.3V338.992H1515.97V316.816H1414.3V250.576H1528.06Z" fill="white"/>
<path d="M1710.76 430H1736.97L1689.74 361.456C1718.82 351.952 1734.95 329.488 1734.95 296.08C1734.95 253.168 1705.86 228.4 1655.46 228.4H1578.86V430H1601.9V366.352H1655.46C1660.07 366.352 1664.68 366.064 1669 365.776L1710.76 430ZM1601.9 344.176V250.576H1655.46C1692.04 250.576 1712.78 266.128 1712.78 296.656C1712.78 328.048 1692.04 344.176 1655.46 344.176H1601.9Z" fill="white"/>
<path d="M1786.98 228.4V430H1810.02V366.352H1862.72C1912.55 366.352 1941.35 340.72 1941.35 296.08C1941.35 253.168 1912.55 228.4 1862.72 228.4H1786.98ZM1810.02 250.576H1861.86C1898.15 250.576 1919.17 266.128 1919.17 296.656C1919.17 328.048 1898.15 344.176 1861.86 344.176H1810.02V250.576Z" fill="white"/>
<path d="M2002.68 408.112V228.4H1979.64V430H2091.09V408.112H2002.68Z" fill="white"/>
<path d="M2258.25 379.024L2280.72 430H2305.77L2215.63 228.4H2191.72L2101.29 430H2125.77L2148.24 379.024H2258.25ZM2248.46 356.848H2158.03L2202.96 254.608L2248.46 356.848Z" fill="white"/>
<path d="M2445.84 250.576V228.4H2291.18V250.576H2356.85V430H2379.89V250.576H2445.84Z" fill="white"/>
<path d="M2606.43 250.576V228.4H2451.78V250.576H2517.44V430H2540.48V250.576H2606.43Z" fill="white"/>
<path d="M2776.53 250.576V228.4H2639.73V430H2780.28V408.112H2662.77V338.992H2764.44V316.816H2662.77V250.576H2776.53Z" fill="white"/>
<path d="M2959.23 430H2985.44L2938.2 361.456C2967.29 351.952 2983.42 329.488 2983.42 296.08C2983.42 253.168 2954.33 228.4 2903.93 228.4H2827.32V430H2850.36V366.352H2903.93C2908.54 366.352 2913.15 366.064 2917.47 365.776L2959.23 430ZM2850.36 344.176V250.576H2903.93C2940.51 250.576 2961.24 266.128 2961.24 296.656C2961.24 328.048 2940.51 344.176 2903.93 344.176H2850.36Z" fill="white"/>
<path d="M3242.06 379.024L3264.53 430H3289.58L3199.44 228.4H3175.54L3085.1 430H3109.58L3132.05 379.024H3242.06ZM3232.27 356.848H3141.84L3186.77 254.608L3232.27 356.848Z" fill="white"/>
<path d="M3480.31 228.4H3457.27V347.056C3457.27 386.224 3434.23 408.976 3395.93 408.976C3357.62 408.976 3334.01 386.224 3334.01 347.056V228.4H3310.97V347.056C3310.97 399.472 3342.93 431.152 3395.93 431.152C3448.63 431.152 3480.31 399.472 3480.31 347.056V228.4Z" fill="white"/>
<path d="M3536.64 228.4V430H3617.28C3676.61 430 3721.82 386.512 3721.82 329.2C3721.82 271.888 3676.89 228.4 3618.14 228.4H3536.64ZM3559.68 250.576H3617.57C3662.78 250.576 3698.49 284.272 3698.49 329.488C3698.49 374.416 3663.36 408.112 3618.43 408.112H3559.68V250.576Z" fill="white"/>
<path d="M3786.93 430V228.4H3763.89V430H3786.93Z" fill="white"/>
<path d="M3934.67 227.824C3875.63 227.824 3828.97 272.176 3828.97 329.2C3828.97 385.936 3875.63 431.152 3934.67 431.152C3993.42 431.152 4040.08 385.936 4040.08 329.2C4040.08 272.464 3993.42 227.824 3934.67 227.824ZM3934.67 249.712C3979.6 249.712 4016.46 284.848 4016.46 329.2C4016.46 373.552 3979.6 408.976 3934.67 408.976C3889.74 408.976 3852.3 373.552 3852.3 329.2C3852.3 284.848 3889.74 249.712 3934.67 249.712Z" fill="white"/>
</g>
<defs>
<clipPath id="clip0_3_19">
<rect width="4040.08" height="627" fill="white"/>
</clipPath>
</defs>
</svg>
